PathFileType	4	(X/Y/Z)	\\147.46.242.158\로컬 디스크 (e)\MOCAP Data\Iguana Capture\iguana\Project 2\Capture day 7\Session 2\Take08.trc
DataRate	CameraRate	NumFrames	NumMarkers	Units	OrigDataRate	OrigDataStartFrame	OrigNumFrames
120.0	120.0	6	23	mm	120.0	390	29130
Frame#	Time	ana:head1			ana:head2			ana:bone1			ana:bone2			ana:bone3			ana:tail1			ana:tail2			ana:tail3			ana:tail4			ana:Rforefoot1			ana:Rforefoot2			ana:Rforefoot3			ana:Lforefoot1			ana:Lforefoot2			ana:Lforefoot3			ana:RhindLeg1			ana:RhindLeg2			ana:RhindLeg3			ana:RhindLeg4			ana:LhindLeg1			ana:LhindLeg2			ana:LhindLeg3			ana:LhindLeg4			
		X1	Y1	Z1	X2	Y2	Z2	X3	Y3	Z3	X4	Y4	Z4	X5	Y5	Z5	X6	Y6	Z6	X7	Y7	Z7	X8	Y8	Z8	X9	Y9	Z9	X10	Y10	Z10	X11	Y11	Z11	X12	Y12	Z12	X13	Y13	Z13	X14	Y14	Z14	X15	Y15	Z15	X16	Y16	Z16	X17	Y17	Z17	X18	Y18	Z18	X19	Y19	Z19	X20	Y20	Z20	X21	Y21	Z21	X22	Y22	Z22	X23	Y23	Z23	

1891	15.750	-37.62027	-143.29918	50.57525	-34.42835	-133.18555	52.50818	-20.15240	-116.28195	42.33984	-1.57896	-94.41954	38.75382	11.44060	-63.56963	32.04762	16.16058	-31.59680	23.75561	31.93130	0.14753	14.34099	58.08833	35.53403	7.36308	85.00177	65.50000	6.03128	-30.75899	-107.57268	26.67541	-28.87801	-92.47691	22.67580	-28.25643	-95.02177	8.78663	-15.86388	-129.78938	26.08475	-12.86678	-140.37683	17.90473	-21.25829	-152.47409	7.40832	1.43581	-62.77880	26.66398	-15.24979	-72.23951	26.48692	-29.54934	-64.81503	10.85200	-36.24182	-75.49725	11.05548	20.80472	-63.42581	24.88503	38.64538	-61.09012	20.06883	48.39494	-41.37381	11.67626	52.45554	-51.32402	6.56261	
1892	15.758	-38.24757	-144.29361	50.39389	-35.29865	-134.07356	52.60980	-20.86950	-117.11284	42.21062	-2.28641	-95.24165	38.65379	10.71422	-64.27439	31.92047	15.07830	-32.34976	23.59925	30.71828	-0.51363	14.22319	57.02266	34.79864	7.34159	84.21916	64.50865	6.06830	-31.27375	-108.43715	26.52083	-29.17343	-93.26797	22.68509	-28.45339	-95.17102	8.96768	-16.16436	-130.78029	25.94329	-13.15232	-140.96060	17.28184	-21.45756	-152.92143	6.67235	0.55907	-63.62120	26.43065	-16.13883	-73.13962	25.81393	-30.59024	-66.55798	9.79500	-37.19975	-77.13729	9.87197	19.96347	-64.16974	24.91483	37.75214	-61.52378	20.20605	47.86816	-41.71571	12.02102	52.21972	-51.37288	6.67417	
1893	15.767	-38.75916	-145.27951	50.25340	-36.07677	-134.99361	52.68357	-21.54926	-117.95790	42.10561	-3.03742	-96.02959	38.58559	9.89782	-64.99081	31.76710	14.03277	-33.09814	23.37523	29.54969	-1.19754	14.04091	55.99488	34.05378	7.31539	83.39963	63.57113	6.12585	-31.82130	-109.28969	26.37553	-29.49484	-94.08977	22.69913	-28.58814	-95.33347	9.09631	-16.41404	-131.78653	25.95031	-13.25905	-141.64809	17.01631	-21.51112	-153.39488	6.27643	-0.36971	-64.42067	26.21594	-17.10497	-73.89248	25.18502	-31.59582	-67.89167	8.87329	-38.07730	-78.36111	8.82860	19.10486	-64.90720	24.87959	36.81560	-61.94707	20.31341	47.28216	-42.13383	12.36661	51.92186	-51.42620	6.82533	
1894	15.775	-39.23928	-146.22453	50.21447	-36.63450	-135.95598	52.66420	-22.21058	-118.79627	42.05657	-3.81432	-96.75993	38.53850	9.05265	-65.67775	31.63074	13.00872	-33.84921	23.09070	28.45053	-1.88828	13.79107	55.02054	33.29625	7.25154	82.56783	62.68668	6.19712	-32.36513	-110.16207	26.30134	-29.87904	-94.94749	22.78234	-28.72566	-95.51751	9.23032	-16.71850	-132.70042	25.98807	-13.28181	-142.30040	16.88492	-21.49229	-153.82129	6.06610	-1.30245	-65.16608	25.93866	-18.13087	-74.50843	24.63098	-32.52104	-68.86619	8.07759	-38.83459	-79.19479	8.02415	18.17931	-65.61017	24.78500	35.80310	-62.31910	20.38869	46.64542	-42.62889	12.72153	51.53656	-51.42188	7.03534	
1895	15.783	-39.66759	-147.09889	50.27037	-36.95858	-136.95154	52.50836	-22.84261	-119.62592	42.03813	-4.61390	-97.42625	38.51427	8.12953	-66.33608	31.42623	12.01082	-34.56892	22.76274	27.43326	-2.60766	13.48703	54.10928	32.51170	7.16430	81.72627	61.85118	6.26331	-33.03140	-111.02945	26.33398	-30.32023	-95.80529	22.86001	-28.88256	-95.72993	9.36940	-17.18918	-133.44125	25.97560	-13.27656	-142.97212	16.91461	-21.43800	-154.13461	5.89601	-2.25460	-65.83551	25.68025	-19.18757	-75.03882	24.20292	-33.29062	-69.54175	7.43068	-39.51543	-79.73553	7.51140	17.25785	-66.28950	24.64051	34.76603	-62.69160	20.42956	46.00511	-43.19469	13.06189	51.14611	-51.47229	7.24452	
1896	15.792	-39.89684	-148.01102	50.38834	-37.24771	-137.93968	52.49943	-23.54000	-120.44459	42.09243	-5.44450	-98.05360	38.53029	7.16517	-66.96891	31.26752	11.06081	-35.26654	22.41734	26.49111	-3.33941	13.13763	53.28110	31.70947	7.06618	80.92165	61.04515	6.35252	-33.71920	-111.93131	26.43217	-30.82975	-96.70695	22.93029	-28.88949	-96.16147	9.52615	-17.73644	-134.07953	25.95373	-13.25653	-143.51353	16.94505	-21.36561	-154.32007	5.73033	-3.12533	-66.46394	25.41968	-20.20543	-75.48701	23.85546	-33.86797	-69.98346	6.91714	-40.03286	-80.05531	7.21482	16.30784	-66.95010	24.48350	33.71186	-63.08191	20.44351	45.39228	-43.77196	13.39451	50.76802	-51.53753	7.41338	
